<?xml version="1.0" encoding="utf-8"?>
<svg version="1.1" xmlns="http://www.w3.org/2000/svg" xmlns:xlink="http://www.w3.org/1999/xlink" x="0px" y="0px" viewBox="0 0 370.3 85.9" style="enable-background:new 0 0 370.3 85.9;" xml:space="preserve" fill="#fff">
	<g>
		<path d="M0,3.2h13.9l10,29l9.9-29h13.1v45L38,43.8v-30h-0.2L26.6,48.2l-5.9-3.1L9.2,13.8H8.9v34.5L0,43.8V3.2z" />
		<path d="M55.5,2.6h9.1v7.4h-9.1V2.6z M55.5,13.5h9.1v34.7l-9.1-4.4V13.5z" />
		<path d="M83.9,44.3c-0.9-0.1-2-0.2-3.4-0.3c-1.3-0.2-2.4-0.5-3.3-0.9c-0.9-0.4-1.7-1-2.7-1.9C72.9,39.8,72,37.4,72,34V23.9
		c0-2.8,0.6-5,1.9-6.9c0.5-0.7,1.1-1.3,2-1.8c0.9-0.6,1.8-1,2.7-1.3c0.8-0.2,1.8-0.5,3-0.6c1.2-0.2,2.4-0.3,3.3-0.3h3.3
		c2.3,0,5.4,0.4,9.2,1.1l-2.5,5.4c-4.3-1-5.1-0.9-7.4-0.9c-4.2,0-6.3,1.4-6.3,4.3v11.1c0,3.2,2.3,4.8,6.9,4.8c2.3,0,5.5-0.5,9.7-1.4
		l-2.7,6.5c-3.8,0.7-4.5,0.6-7.6,0.6C86.1,44.4,84.8,44.4,83.9,44.3z" />
		<path d="M103,0h9.1v17.2c0.6-2.9,3.8-4.3,9.6-4.3c3.9,0,6.6,0.7,8.2,2.1c1.6,1.4,2.3,3.6,2.3,6.6v26.6l-9.1-4.4V22.6
		c0-1.2-0.1-2-0.3-2.6c-0.2-0.6-0.7-1-1.3-1.2c-0.7-0.2-1.7-0.3-3.2-0.3c-1.8,0-3.1,0.1-3.9,0.3c-0.8,0.2-1.4,0.6-1.7,1.2
		c-0.3,0.6-0.4,1.4-0.4,2.7l-0.1,25.6l-9.1-4.4V0z" />
		<path d="M142.5,43.6c-1.4-0.5-2.4-1.5-2.9-2.8c-0.6-1.4-0.8-3.4-0.8-6.1c0-2.4,0.3-4.3,0.9-5.7c0.6-1.4,1.6-2.4,2.9-3
		c1.4-0.6,3.2-0.9,5.6-0.9h10.3v-2.1c0-1.3-0.2-2.3-0.5-2.9c-0.4-0.6-1-1.1-1.9-1.3c-0.9-0.3-2.3-0.4-4.2-0.4
		c-2.6,0-6.1,0.3-10.6,0.8l2.8-6c3.3-0.4,4.4-0.3,8.8-0.3c3.9,0,6.9,0.3,9,0.9c2.1,0.6,3.6,1.6,4.5,3c0.9,1.4,1.4,3.5,1.4,6.2v25.4
		l-8.9-4.6V41c-0.7,1.2-1.7,2.1-2.9,2.6c-1.2,0.5-3.5,0.8-6.9,0.8C146,44.4,143.9,44.2,142.5,43.6z M156.3,38.5
		c0.6-0.1,1-0.2,1.2-0.4c0.2-0.2,0.4-0.4,0.6-0.8c0.2-0.3,0.2-0.7,0.2-1.3v-5.9h-6.3c-1.4,0-2.4,0.1-3,0.3c-0.6,0.2-1,0.6-1.2,1.1
		c-0.2,0.6-0.3,1.6-0.3,3c0,1.4,0.1,2.3,0.3,2.9c0.2,0.5,0.6,0.9,1.2,1.1c0.6,0.2,1.7,0.2,3.2,0.2C154.2,38.7,155.5,38.7,156.3,38.5
		z" />
		<path d="M174.6,34.6V23.7c0-3.8,1.2-6.5,3.7-8.3c2.4-1.7,6.2-2.6,11.3-2.6c4.8,0,8.3,0.8,10.5,2.5c2.2,1.6,3.3,4.4,3.3,8.4v7.4
		h-19.6v2.8c0,1.8,0.6,3,1.9,3.8c1.2,0.8,3.5,1.1,6.8,1.1c3,0,4.1,0.1,7.8-0.8l2.3,5.3c-3.7,0.8-7.7,1.2-11.9,1.2
		C180,44.4,174.6,41.1,174.6,34.6z M194.8,25.9v-4.4c0-1-0.4-1.8-1.2-2.3c-0.8-0.5-2.2-0.8-4.1-0.8c-2.2,0-3.7,0.3-4.4,0.8
		c-0.8,0.5-1.2,1.3-1.2,2.3v4.4H194.8z" />
		<path d="M210.7,0h9.1v75.4l-9.1-4.6V0z" />
		<path d="M241.5,44.2c-1.4-0.2-3-0.5-4.7-0.9c-1.9-0.5-3.5-1.2-4.8-2c-1.2-0.8-2.3-1.9-3.1-3.4c-0.9-1.5-1.3-3.2-1.3-5.2V14.8
		c0-8.2,6.3-12.3,18.8-12.3c3.2,0,4-0.1,9.4,0.8l3.5,7.9c-4.8-1.2-9.1-1.8-12.8-1.8c-1.5,0-2.7,0-3.6,0.1c-0.9,0.1-1.7,0.3-2.7,0.6
		c-2,0.7-2.9,2.1-2.9,4.4V32c0,3.7,3.4,5.5,10.1,5.5c2.9,0,3.9,0,9.2-1.2l3,6.7c-4.5,0.9-8.8,1.4-13.1,1.4
		C244.6,44.4,243,44.3,241.5,44.2z" />
		<path d="M275.4,44.2c-1.2-0.1-2.5-0.4-3.9-0.8c-1.5-0.4-2.7-1-3.6-1.8c-0.9-0.8-1.7-1.9-2.3-3.3c-0.6-1.4-0.9-3-0.9-5v-8.9
		c0-2,0.3-3.8,0.9-5.3c0.6-1.5,1.4-2.7,2.4-3.5c0.9-0.7,2-1.3,3.5-1.8c1.4-0.5,2.8-0.8,4.2-0.9c1.6-0.1,3-0.1,4.3-0.1
		c1.9,0,3.5,0.1,4.6,0.2c1.1,0.1,2.4,0.4,3.8,0.8c1.5,0.5,2.7,1.1,3.7,1.9c0.9,0.8,1.7,1.9,2.4,3.4c0.6,1.5,0.9,3.3,0.9,5.4v8.9
		c0,1.9-0.3,3.5-0.9,4.9c-0.6,1.4-1.4,2.5-2.3,3.3c-0.8,0.7-2,1.3-3.4,1.7c-1.4,0.4-2.8,0.7-4.2,0.8c-1.3,0.1-2.8,0.2-4.5,0.2
		C278.1,44.4,276.6,44.3,275.4,44.2z M283.9,38.3c0.9-0.3,1.5-0.7,1.8-1.3s0.5-1.4,0.5-2.6V23c0-1.7-0.4-2.8-1.3-3.5
		c-0.9-0.7-2.5-1-4.9-1c-2.4,0-4.1,0.3-4.9,1c-0.9,0.7-1.3,1.8-1.3,3.5v11.4c0,1.1,0.2,2,0.5,2.6c0.4,0.6,1,1,1.8,1.3
		c0.9,0.3,2.2,0.4,3.9,0.4S283,38.6,283.9,38.3z" />
		<path d="M312.4,44.2c-1.2-0.1-2.5-0.4-3.9-0.8c-1.5-0.4-2.7-1-3.6-1.8c-0.9-0.8-1.7-1.9-2.3-3.3c-0.6-1.4-0.9-3-0.9-5v-8.9
		c0-2,0.3-3.8,0.9-5.3c0.6-1.5,1.4-2.7,2.4-3.5c0.9-0.7,2-1.3,3.5-1.8c1.4-0.5,2.8-0.8,4.2-0.9c1.6-0.1,3-0.1,4.3-0.1
		c1.9,0,3.5,0.1,4.6,0.2c1.1,0.1,2.4,0.4,3.8,0.8c1.5,0.5,2.7,1.1,3.7,1.9c0.9,0.8,1.7,1.9,2.4,3.4c0.6,1.5,0.9,3.3,0.9,5.4v8.9
		c0,1.9-0.3,3.5-0.9,4.9c-0.6,1.4-1.4,2.5-2.3,3.3c-0.8,0.7-2,1.3-3.4,1.7c-1.4,0.4-2.8,0.7-4.2,0.8c-1.3,0.1-2.8,0.2-4.5,0.2
		C315.1,44.4,313.6,44.3,312.4,44.2z M320.9,38.3c0.9-0.3,1.5-0.7,1.8-1.3s0.5-1.4,0.5-2.6V23c0-1.7-0.4-2.8-1.3-3.5
		c-0.9-0.7-2.5-1-4.9-1c-2.4,0-4.1,0.3-4.9,1c-0.9,0.7-1.3,1.8-1.3,3.5v11.4c0,1.1,0.2,2,0.5,2.6c0.4,0.6,1,1,1.8,1.3
		c0.9,0.3,2.2,0.4,3.9,0.4S320,38.6,320.9,38.3z" />
		<path d="M339.5,0h9.1v75.2l-9.1-4.4V0z M349,26.8l9.9-13.3h10.4l-10.5,13.2l11.4,22.4l-12.2-5.3L349,26.8z" />
	</g>
	<g>
		<path d="M226.5,72h7.5v5.3h-7.5V72z" />
		<path d="M248.1,77.5c-0.8-0.1-1.6-0.2-2.4-0.5c-0.9-0.2-1.6-0.6-2.2-1c-0.6-0.4-1-1-1.4-1.7c-0.4-0.7-0.6-1.6-0.6-2.6v-9.7h-4.7
		v-3.5h4.7v-5.4h7v5.4h6.4v3.5h-6.4v8.8c0,0.9,0.1,1.6,0.3,2c0.2,0.4,0.6,0.8,1.1,1c0.5,0.2,1.4,0.3,2.5,0.3c0.4,0,1.3-0.1,2.5-0.2
		v3.5c-1.5,0.1-2.8,0.2-3.9,0.2C249.9,77.7,248.9,77.6,248.1,77.5z" />
		<path d="M258.4,71.6v-6.7c0-2.3,0.9-4,2.8-5.1s4.8-1.6,8.7-1.6c3.7,0,6.4,0.5,8.1,1.5c1.7,1,2.6,2.7,2.6,5.1v4.5h-15.1v1.7
		c0,1.1,0.5,1.8,1.4,2.3c1,0.5,2.7,0.7,5.2,0.7c2.3,0,4.9-0.3,7.8-0.8v3.6c-2.8,0.5-5.9,0.7-9.1,0.7
		C262.5,77.7,258.4,75.6,258.4,71.6z M273.8,66.3v-2.7c0-0.6-0.3-1.1-0.9-1.4c-0.6-0.3-1.7-0.5-3.1-0.5c-1.7,0-2.8,0.2-3.4,0.5
		c-0.6,0.3-0.9,0.8-0.9,1.4v2.7H273.8z" />
		<path d="M294.3,77.6c-0.7,0-1.6-0.1-2.6-0.2c-1-0.1-1.9-0.3-2.5-0.5c-0.7-0.3-1.3-0.6-2-1.2c-1.3-0.9-2-2.4-2-4.5v-6.2
		c0-1.7,0.5-3.1,1.4-4.2c0.4-0.4,0.9-0.8,1.6-1.1s1.4-0.6,2.1-0.8c0.6-0.2,1.3-0.3,2.3-0.4c1-0.1,1.8-0.2,2.5-0.2h2.5
		c1.8,0,4.1,0.2,7.1,0.7v3.7c-3.3-0.6-5.8-0.9-7.6-0.9c-3.2,0-4.8,0.9-4.8,2.6v6.8c0,2,1.8,3,5.3,3c1.7,0,4.2-0.3,7.4-0.8V77
		c-2.9,0.4-5.5,0.7-7.9,0.7C296,77.7,295,77.6,294.3,77.6z" />
		<path d="M309,50.4h7V61c0.4-1.8,2.9-2.7,7.3-2.7c3,0,5.1,0.4,6.3,1.3s1.8,2.2,1.8,4.1v13.6h-7v-13c0-0.7-0.1-1.2-0.3-1.6
		c-0.2-0.3-0.5-0.6-1-0.7c-0.5-0.1-1.3-0.2-2.4-0.2c-1.4,0-2.4,0.1-3,0.2c-0.6,0.1-1.1,0.4-1.3,0.7c-0.2,0.3-0.3,0.9-0.3,1.6v13h-7
		V50.4z" />
	</g>
</svg>
